<svg id="flat" height="512" viewBox="0 0 512 512" width="512" xmlns="http://www.w3.org/2000/svg"><path d="m170.66666 352-42.98572-64.47857a93.36692 93.36692 0 0 1 -15.68094-51.79065v-.00007a93.36688 93.36688 0 0 1 33.59486-71.72643l14.40514-12.00428 32 56v-36.24636a70.79487 70.79487 0 0 1 39.13445-63.32086h.00007a70.79486 70.79486 0 0 0 34.62687-38.46312l14.23861-37.96966 73.03742 68.16826a147.829 147.829 0 0 1 46.96258 108.07118v.00011a150.08108 150.08108 0 0 1 -27.60239 86.737l-40.38292 57.02345z" fill="#f78e00"/><path d="m213.3394 352-30.9544-46.41845a38.00063 38.00063 0 0 1 -6.385-21.08309 38.22459 38.22459 0 0 1 17.01064-31.83946c3.93214-2.62085 6.98936-4.659 6.98936-4.659l24 24v-10.75363a51.65463 51.65463 0 0 1 25.07856-44.2935 51.65465 51.65465 0 0 0 21.384-25.10944l9.53744-23.84343 34.18861 34.18861a74.46873 74.46873 0 0 1 21.81139 52.65739v.00006a74.46869 74.46869 0 0 1 -15.25273 45.15591l-39.65178 51.99803z" fill="#ffc431"/><path d="m168 352h184v96h-184z" fill="#b1712c"/><path d="m240 408h16v16h-16z" fill="#a36522"/><path d="m272 408h48v16h-48z" fill="#a36522"/><path d="m320 351.6a39.55769 39.55769 0 0 0 11.6 28l88 88 .8.8a39.598 39.598 0 1 0 56-56l-.8-.8-88-88a39.55526 39.55526 0 0 0 -56 0c-.54993.55-1.09 1.13-1.61 1.71a39.40984 39.40984 0 0 0 -9.99 26.29z" fill="#b1712c"/><path d="m408 439.6a39.55769 39.55769 0 0 0 11.6 28l.8.8a39.598 39.598 0 1 0 56-56l-.8-.8a39.6 39.6 0 0 0 -67.6 28z" fill="#c78640"/><circle cx="448" cy="440" fill="#d69651" r="8"/><circle cx="448" cy="440" fill="#b1712c" r="8"/><path d="m192 351.6a39.55769 39.55769 0 0 1 -11.6 28l-88 88-.8.8a39.598 39.598 0 1 1 -56-56l.8-.8 88-88a39.55526 39.55526 0 0 1 56 0c.54993.55 1.09 1.13 1.61 1.71a39.40984 39.40984 0 0 1 9.99 26.29z" fill="#b1712c"/><path d="m104 439.6a39.55769 39.55769 0 0 1 -11.6 28l-.8.8a39.598 39.598 0 1 1 -56-56l.8-.8a39.6 39.6 0 0 1 67.6 28z" fill="#c78640"/><circle cx="64" cy="440" fill="#d69651" r="8"/><path d="m256 351.6a39.55769 39.55769 0 0 1 -11.6 28l-88 88-.8.8a39.598 39.598 0 1 1 -56-56l.8-.8 88-88a39.55526 39.55526 0 0 1 56 0c.54993.55 1.09 1.13 1.61 1.71a39.40984 39.40984 0 0 1 9.99 26.29z" fill="#c78640"/><path d="m168 439.6a39.55769 39.55769 0 0 1 -11.6 28l-.8.8a39.598 39.598 0 1 1 -56-56l.8-.8a39.6 39.6 0 0 1 67.6 28z" fill="#e3a15b"/><circle cx="128" cy="440" fill="#d69651" r="8"/><g fill="#b1712c"><path d="m246.01 325.31-48.3501 48.35-11.31982-11.32 46.68992-46.69a39.60306 39.60306 0 0 1 11.37 7.95c.55.55 1.09 1.13 1.61 1.71z"/><circle cx="64" cy="440" r="8"/><path d="m164.686 376h22.627v16h-22.627z" transform="matrix(.707 -.707 .707 .707 -219.98 236.922)"/></g><path d="m424 440.4a39.59794 39.59794 0 0 1 -67.6 28l-.8-.8-88-88a39.59315 39.59315 0 0 1 0-56 39.99736 39.99736 0 0 1 7.05993-5.62 39.538 39.538 0 0 1 16.86007-5.78c1.34-.13 2.7-.2 4.08-.2a39.59386 39.59386 0 0 1 28 11.6l88 88 .8.8a39.5935 39.5935 0 0 1 11.6 28z" fill="#c78640"/><path d="m325.65991 346.34-11.31982 11.32-39.68018-39.68a39.538 39.538 0 0 1 16.86009-5.78z" fill="#b1712c"/><path d="m328 356.686h16v22.627h-16z" fill="#b1712c" transform="matrix(.707 -.707 .707 .707 -161.803 345.373)"/><path d="m312 346.745h16v90.51h-16z" fill="#b1712c" transform="matrix(.707 -.707 .707 .707 -183.46 341.088)"/><path d="m424 440.4a39.59794 39.59794 0 0 1 -67.6 28l-.8-.8a39.598 39.598 0 1 1 56-56l.8.8a39.5935 39.5935 0 0 1 11.6 28z" fill="#e3a15b"/><circle cx="384" cy="440" fill="#d69651" r="8"/></svg>